<svg width="1346" height="842" viewBox="0 0 1346 842" fill="none" xmlns="http://www.w3.org/2000/svg">
  <path
    d="M858.298 -854.237L107.111 -103.051C48.1473 -44.0867 48.1473 51.5125 107.111 110.476C166.075 169.44 261.674 169.44 320.638 110.476L1071.82 -640.71C1130.79 -699.674 1130.79 -795.273 1071.82 -854.237C1012.86 -913.201 917.262 -913.201 858.298 -854.237Z"
    fill="#E1D3F9" />
  <path
    d="M858.298 -854.237L107.111 -103.051C48.1473 -44.0867 48.1473 51.5125 107.111 110.476C166.075 169.44 261.674 169.44 320.638 110.476L1071.82 -640.71C1130.79 -699.674 1130.79 -795.273 1071.82 -854.237C1012.86 -913.201 917.262 -913.201 858.298 -854.237Z"
    fill="url(#paint0_linear_3277_1262)" />
  <path
    d="M945.561 -316.155L194.375 435.031C135.411 493.995 135.411 589.595 194.375 648.558C253.339 707.522 348.938 707.522 407.902 648.558L1159.09 -102.628C1218.05 -161.592 1218.05 -257.191 1159.09 -316.155C1100.12 -375.119 1004.53 -375.119 945.561 -316.155Z"
    fill="#E1D3F9" />
  <path
    d="M945.561 -316.155L194.375 435.031C135.411 493.995 135.411 589.595 194.375 648.558C253.339 707.522 348.938 707.522 407.902 648.558L1159.09 -102.628C1218.05 -161.592 1218.05 -257.191 1159.09 -316.155C1100.12 -375.119 1004.53 -375.119 945.561 -316.155Z"
    fill="url(#paint1_linear_3277_1262)" />
  <path
    d="M1484.9 -229.813L733.713 521.373C674.749 580.337 674.749 675.936 733.713 734.9C792.676 793.864 888.276 793.864 947.24 734.9L1698.43 -16.2864C1757.39 -75.2502 1757.39 -170.85 1698.43 -229.813C1639.46 -288.777 1543.86 -288.777 1484.9 -229.813Z"
    fill="#E1D3F9" />
  <path
    d="M1484.9 -229.813L733.713 521.373C674.749 580.337 674.749 675.936 733.713 734.9C792.676 793.864 888.276 793.864 947.24 734.9L1698.43 -16.2864C1757.39 -75.2502 1757.39 -170.85 1698.43 -229.813C1639.46 -288.777 1543.86 -288.777 1484.9 -229.813Z"
    fill="url(#paint2_linear_3277_1262)" />
  <path
    d="M1570.84 310.364L819.65 1061.55C760.686 1120.51 760.686 1216.11 819.65 1275.08C878.614 1334.04 974.213 1334.04 1033.18 1275.08L1784.36 523.891C1843.33 464.927 1843.33 369.328 1784.36 310.364C1725.4 251.401 1629.8 251.401 1570.84 310.364Z"
    fill="#E1D3F9" />
  <path
    d="M1570.84 310.364L819.65 1061.55C760.686 1120.51 760.686 1216.11 819.65 1275.08C878.614 1334.04 974.213 1334.04 1033.18 1275.08L1784.36 523.891C1843.33 464.927 1843.33 369.328 1784.36 310.364C1725.4 251.401 1629.8 251.401 1570.84 310.364Z"
    fill="url(#paint3_linear_3277_1262)" />
  <defs>
    <linearGradient id="paint0_linear_3277_1262" x1="244" y1="-3.00049" x2="122.5" y2="120.499"
      gradientUnits="userSpaceOnUse">
      <stop stop-color="white" stop-opacity="0.6" />
      <stop offset="1" stop-color="white" stop-opacity="0.1" />
    </linearGradient>
    <linearGradient id="paint1_linear_3277_1262" x1="815.998" y1="18.5006" x2="187.498" y2="639.501"
      gradientUnits="userSpaceOnUse">
      <stop stop-color="white" stop-opacity="0.6" />
      <stop offset="1" stop-color="white" stop-opacity="0.1" />
    </linearGradient>
    <linearGradient id="paint2_linear_3277_1262" x1="1356" y1="117.499" x2="720.5" y2="725.499"
      gradientUnits="userSpaceOnUse">
      <stop stop-color="white" stop-opacity="0.6" />
      <stop offset="0.913939" stop-color="white" stop-opacity="0.1" />
    </linearGradient>
    <linearGradient id="paint3_linear_3277_1262" x1="1341.5" y1="719.5" x2="1210" y2="847"
      gradientUnits="userSpaceOnUse">
      <stop stop-color="white" stop-opacity="0.6" />
      <stop offset="1" stop-color="white" stop-opacity="0.1" />
    </linearGradient>
  </defs>
</svg>