<svg width="1312" height="625" viewBox="0 0 1312 625" fill="none" xmlns="http://www.w3.org/2000/svg">
<g filter="url(#filter0_dd_1_407)">
<path d="M655.989 250L655.158 252.826L655.158 334.828L655.989 335.658L693.997 313.159L655.989 250Z" fill="#6B6B6B"/>
<path d="M655.989 250L617.98 313.159L655.989 335.658L655.989 295.857L655.989 250Z" fill="#A2A2A2"/>
<path d="M655.989 342.865L655.521 343.437L655.521 372.647L655.989 374.016L694.02 320.377L655.989 342.865Z" fill="#4F4E4E"/>
<path d="M655.989 374.016L655.989 342.865L617.98 320.377L655.989 374.016Z" fill="#A2A2A2"/>
<path d="M655.989 335.658L693.997 313.159L655.989 295.857L655.989 335.658Z" fill="#797979"/>
<path d="M617.98 313.159L655.989 335.658L655.989 295.857L617.98 313.159Z" fill="#D4D4D4"/>
<g style="mix-blend-mode:overlay">
<path d="M655.989 250L655.158 252.826L655.158 334.828L655.989 335.658L693.997 313.159L655.989 250Z" fill="#ACE730"/>
<path d="M655.989 250L617.98 313.159L655.989 335.658L655.989 295.857L655.989 250Z" fill="#ACE730"/>
<path d="M655.989 342.865L655.521 343.437L655.521 372.647L655.989 374.016L694.02 320.377L655.989 342.865Z" fill="#ACE730"/>
<path d="M655.989 374.016L655.989 342.865L617.98 320.377L655.989 374.016Z" fill="#ACE730"/>
<path d="M655.989 335.658L693.997 313.159L655.989 295.857L655.989 335.658Z" fill="#ACE730"/>
<path d="M617.98 313.159L655.989 335.658L655.989 295.857L617.98 313.159Z" fill="#ACE730"/>
</g>
</g>
<g opacity="0.05" filter="url(#filter1_df_1_407)">
<path d="M655.915 400L649.6 399.18L649.6 375.387L655.915 375.146L944.823 381.674L655.915 400Z" fill="black"/>
<path d="M655.915 400L367 381.674L655.915 375.146L655.915 386.694L655.915 400Z" fill="#A2A2A2"/>
<path d="M655.915 373.055L652.356 372.889L652.356 364.414L655.915 364.016L945 379.58L655.915 373.055Z" fill="black"/>
<path d="M655.915 364.016L655.915 373.055L367 379.58L655.915 364.016Z" fill="#A2A2A2"/>
<path d="M655.915 375.146L944.823 381.674L655.915 386.694L655.915 375.146Z" fill="black"/>
<path d="M367 381.674L655.915 375.146L655.915 386.694L367 381.674Z" fill="#D4D4D4"/>
<g style="mix-blend-mode:overlay">
<path d="M655.915 400L649.6 399.18L649.6 375.387L655.915 375.146L944.823 381.674L655.915 400Z" fill="black"/>
<path d="M655.915 400L367 381.674L655.915 375.146L655.915 386.694L655.915 400Z" fill="black"/>
<path d="M655.915 373.055L652.356 372.889L652.356 364.413L655.915 364.016L945 379.58L655.915 373.055Z" fill="black"/>
<path d="M655.915 364.016L655.915 373.055L367 379.58L655.915 364.016Z" fill="black"/>
<path d="M655.915 375.146L944.823 381.674L655.915 386.694L655.915 375.146Z" fill="black"/>
<path d="M367 381.674L655.915 375.146L655.915 386.694L367 381.674Z" fill="black"/>
</g>
</g>
<defs>
<filter id="filter0_dd_1_407" x="367.98" y="0" width="576.04" height="624.016" filterUnits="userSpaceOnUse" color-interpolation-filters="sRGB">
<feFlood flood-opacity="0" result="BackgroundImageFix"/>
<feColorMatrix in="SourceAlpha" type="matrix" values="0 0 0 0 0 0 0 0 0 0 0 0 0 0 0 0 0 0 127 0" result="hardAlpha"/>
<feOffset/>
<feGaussianBlur stdDeviation="52"/>
<feComposite in2="hardAlpha" operator="out"/>
<feColorMatrix type="matrix" values="0 0 0 0 0.67451 0 0 0 0 0.905882 0 0 0 0 0.188235 0 0 0 0.5 0"/>
<feBlend mode="normal" in2="BackgroundImageFix" result="effect1_dropShadow_1_407"/>
<feColorMatrix in="SourceAlpha" type="matrix" values="0 0 0 0 0 0 0 0 0 0 0 0 0 0 0 0 0 0 127 0" result="hardAlpha"/>
<feOffset/>
<feGaussianBlur stdDeviation="125"/>
<feComposite in2="hardAlpha" operator="out"/>
<feColorMatrix type="matrix" values="0 0 0 0 0.67451 0 0 0 0 0.905882 0 0 0 0 0.188235 0 0 0 1 0"/>
<feBlend mode="normal" in2="effect1_dropShadow_1_407" result="effect2_dropShadow_1_407"/>
<feBlend mode="normal" in="SourceGraphic" in2="effect2_dropShadow_1_407" result="shape"/>
</filter>
<filter id="filter1_df_1_407" x="354.39" y="351.406" width="603.22" height="61.2041" filterUnits="userSpaceOnUse" color-interpolation-filters="sRGB">
<feFlood flood-opacity="0" result="BackgroundImageFix"/>
<feColorMatrix in="SourceAlpha" type="matrix" values="0 0 0 0 0 0 0 0 0 0 0 0 0 0 0 0 0 0 127 0" result="hardAlpha"/>
<feOffset/>
<feGaussianBlur stdDeviation="6.3051"/>
<feComposite in2="hardAlpha" operator="out"/>
<feColorMatrix type="matrix" values="0 0 0 0 0.67451 0 0 0 0 0.905882 0 0 0 0 0.188235 0 0 0 0.5 0"/>
<feBlend mode="normal" in2="BackgroundImageFix" result="effect1_dropShadow_1_407"/>
<feBlend mode="normal" in="SourceGraphic" in2="effect1_dropShadow_1_407" result="shape"/>
<feGaussianBlur stdDeviation="4" result="effect2_foregroundBlur_1_407"/>
</filter>
</defs>
</svg>
