<svg width="704" height="538" viewBox="0 0 704 538" fill="none" xmlns="http://www.w3.org/2000/svg">
<g filter="url(#filter0_dd_1_249)">
<path d="M351.99 215.51L351.276 217.94L351.276 288.451L351.99 289.165L384.672 269.818L351.99 215.51Z" fill="#6B6B6B"/>
<path d="M351.99 215.51L319.308 269.818L351.99 289.165L351.99 254.941L351.99 215.51Z" fill="#A2A2A2"/>
<path d="M351.99 295.362L351.588 295.853L351.588 320.97L351.99 322.147L384.692 276.025L351.99 295.362Z" fill="#4F4E4E"/>
<path d="M351.99 322.147L351.99 295.362L319.308 276.025L351.99 322.147Z" fill="#A2A2A2"/>
<path d="M351.99 289.165L384.672 269.818L351.99 254.941L351.99 289.165Z" fill="#797979"/>
<path d="M319.308 269.818L351.99 289.165L351.99 254.941L319.308 269.818Z" fill="#D4D4D4"/>
<g style="mix-blend-mode:overlay">
<path d="M351.99 215.51L351.276 217.94L351.276 288.451L351.99 289.165L384.672 269.818L351.99 215.51Z" fill="#ACE730"/>
<path d="M351.99 215.51L319.308 269.818L351.99 289.165L351.99 254.941L351.99 215.51Z" fill="#ACE730"/>
<path d="M351.99 295.362L351.588 295.853L351.588 320.97L351.99 322.147L384.692 276.025L351.99 295.362Z" fill="#ACE730"/>
<path d="M351.99 322.147L351.99 295.362L319.308 276.025L351.99 322.147Z" fill="#ACE730"/>
<path d="M351.99 289.165L384.672 269.818L351.99 254.941L351.99 289.165Z" fill="#ACE730"/>
<path d="M319.308 269.818L351.99 289.165L351.99 254.941L319.308 269.818Z" fill="#ACE730"/>
</g>
</g>
<g opacity="0.05" filter="url(#filter1_df_1_249)">
<path d="M351.927 344.49L346.497 343.785L346.497 323.326L351.927 323.119L600.348 328.732L351.927 344.49Z" fill="#6B6B6B"/>
<path d="M351.927 344.49L103.5 328.732L351.927 323.119L351.927 333.049L351.927 344.49Z" fill="#A2A2A2"/>
<path d="M351.927 321.321L348.867 321.178L348.867 313.89L351.927 313.549L600.5 326.931L351.927 321.321Z" fill="#4F4E4E"/>
<path d="M351.927 313.549L351.927 321.321L103.5 326.931L351.927 313.549Z" fill="#A2A2A2"/>
<path d="M351.927 323.119L600.348 328.732L351.927 333.049L351.927 323.119Z" fill="#797979"/>
<path d="M103.5 328.732L351.927 323.119L351.927 333.049L103.5 328.732Z" fill="#D4D4D4"/>
<g style="mix-blend-mode:overlay">
<path d="M351.927 344.49L346.497 343.785L346.497 323.326L351.927 323.119L600.348 328.732L351.927 344.49Z" fill="#ACE730"/>
<path d="M351.927 344.49L103.5 328.732L351.927 323.119L351.927 333.049L351.927 344.49Z" fill="#ACE730"/>
<path d="M351.927 321.321L348.867 321.178L348.867 313.89L351.927 313.549L600.5 326.931L351.927 321.321Z" fill="#ACE730"/>
<path d="M351.927 313.549L351.927 321.321L103.5 326.931L351.927 313.549Z" fill="#ACE730"/>
<path d="M351.927 323.119L600.348 328.732L351.927 333.049L351.927 323.119Z" fill="#ACE730"/>
<path d="M103.5 328.732L351.927 323.119L351.927 333.049L103.5 328.732Z" fill="#ACE730"/>
</g>
</g>
<defs>
<filter id="filter0_dd_1_249" x="104.342" y="0.544083" width="495.316" height="536.569" filterUnits="userSpaceOnUse" color-interpolation-filters="sRGB">
<feFlood flood-opacity="0" result="BackgroundImageFix"/>
<feColorMatrix in="SourceAlpha" type="matrix" values="0 0 0 0 0 0 0 0 0 0 0 0 0 0 0 0 0 0 127 0" result="hardAlpha"/>
<feOffset/>
<feGaussianBlur stdDeviation="44.7129"/>
<feComposite in2="hardAlpha" operator="out"/>
<feColorMatrix type="matrix" values="0 0 0 0 0.67451 0 0 0 0 0.905882 0 0 0 0 0.188235 0 0 0 0.5 0"/>
<feBlend mode="normal" in2="BackgroundImageFix" result="effect1_dropShadow_1_249"/>
<feColorMatrix in="SourceAlpha" type="matrix" values="0 0 0 0 0 0 0 0 0 0 0 0 0 0 0 0 0 0 127 0" result="hardAlpha"/>
<feOffset/>
<feGaussianBlur stdDeviation="107.483"/>
<feComposite in2="hardAlpha" operator="out"/>
<feColorMatrix type="matrix" values="0 0 0 0 0.67451 0 0 0 0 0.905882 0 0 0 0 0.188235 0 0 0 1 0"/>
<feBlend mode="normal" in2="effect1_dropShadow_1_249" result="effect2_dropShadow_1_249"/>
<feBlend mode="normal" in="SourceGraphic" in2="effect2_dropShadow_1_249" result="shape"/>
</filter>
<filter id="filter1_df_1_249" x="92.6564" y="302.706" width="518.687" height="52.6272" filterUnits="userSpaceOnUse" color-interpolation-filters="sRGB">
<feFlood flood-opacity="0" result="BackgroundImageFix"/>
<feColorMatrix in="SourceAlpha" type="matrix" values="0 0 0 0 0 0 0 0 0 0 0 0 0 0 0 0 0 0 127 0" result="hardAlpha"/>
<feOffset/>
<feGaussianBlur stdDeviation="5.42153"/>
<feComposite in2="hardAlpha" operator="out"/>
<feColorMatrix type="matrix" values="0 0 0 0 0.67451 0 0 0 0 0.905882 0 0 0 0 0.188235 0 0 0 0.5 0"/>
<feBlend mode="normal" in2="BackgroundImageFix" result="effect1_dropShadow_1_249"/>
<feBlend mode="normal" in="SourceGraphic" in2="effect1_dropShadow_1_249" result="shape"/>
<feGaussianBlur stdDeviation="3.43946" result="effect2_foregroundBlur_1_249"/>
</filter>
</defs>
</svg>
