<svg width="1536" height="370" viewBox="0 0 1536 370" fill="none" xmlns="http://www.w3.org/2000/svg">
<path d="M235.935 185.582C247.987 167.504 254.013 147.082 254.013 124.987C254.013 104.9 248.992 86.4875 239.283 69.4138C229.24 52.3401 215.849 38.949 198.775 28.9056C181.701 19.1971 162.954 14.1753 143.202 14.1753H0.585938V61.0443H143.202C160.945 61.0443 176.01 67.4051 188.732 79.7919C201.118 92.1787 207.479 107.244 207.479 125.322C207.479 143.4 201.118 158.13 188.732 170.852C176.345 183.239 161.28 189.599 143.202 189.599H0.585938V353.306H47.455V236.468H143.202C143.536 236.468 144.206 236.468 144.876 236.468C145.545 236.468 146.215 236.468 146.549 236.468L207.479 353.641H254.348L188.397 226.76C208.149 217.386 223.883 203.995 235.935 185.582Z" fill="#000A44"/>
<path d="M304.23 160.474V207.343H542.927V160.474H304.23ZM304.23 307.776L279.791 353.641H543.262V307.776H304.23ZM279.791 14.1753L304.23 61.0443H542.927V14.1753H279.791Z" fill="#000A44"/>
<path d="M829.498 14.1744V258.898L578.414 0.11377V353.975H625.283V112.599L876.367 369.375V14.1744H829.498Z" fill="#000A44"/>
<path d="M1006.26 228.434L1089.62 179.221C1111.05 166.5 1128.12 149.426 1140.51 127.665C1152.9 105.905 1158.92 82.4702 1158.92 57.3618V14.1753H915.202V61.0443H1112.39V61.7139C1112.39 77.7833 1108.37 92.8483 1100.33 106.909C1092.3 120.97 1081.25 132.017 1067.53 140.052L985.171 188.595C963.41 201.317 946.671 218.39 933.95 240.151C921.563 261.911 915.202 285.346 915.202 310.454V353.306H1158.92V306.437H961.736C961.736 290.368 965.754 275.303 973.788 261.577C981.488 247.516 992.536 236.468 1006.26 228.434Z" fill="#000A44"/>
<path d="M1535.54 198.638C1535.54 198.973 1535.54 199.308 1535.54 199.643C1528.18 281.329 1463.23 345.271 1383.89 353.306C1383.22 353.306 1382.89 353.306 1382.22 353.306L1535.54 198.638Z" fill="#000A44"/>
<path d="M1440.13 29.5744C1435.78 27.5658 1431.43 25.5572 1427.08 23.8833C1418.37 20.5355 1409.33 17.8572 1399.96 15.8485C1388.58 13.505 1377.2 12.166 1365.14 12.166C1359.45 12.166 1353.76 12.5007 1348.07 12.8355C1308.57 16.8529 1273.41 33.9266 1246.3 60.0393C1244.62 61.7132 1242.61 63.7219 1240.94 65.3958C1215.16 92.5129 1198.42 128.334 1194.74 167.503C1194.41 172.525 1194.07 177.547 1194.07 182.903C1194.07 195.625 1195.41 208.011 1198.09 220.063C1200.1 229.103 1202.78 237.807 1206.12 246.511C1208.13 251.198 1210.14 255.885 1212.15 260.237C1216.17 267.937 1220.52 275.302 1225.54 282.332L1253.66 253.876L1434.44 71.087L1462.56 42.6308C1455.87 37.9439 1448.17 33.5918 1440.13 29.5744ZM1237.26 215.377C1236.92 214.372 1236.59 213.033 1236.59 212.029C1234.58 202.655 1233.58 192.946 1233.58 183.238C1233.58 149.425 1246.3 117.621 1269.4 93.1824L1274.08 88.4955C1298.86 64.7262 1331 51.6699 1365.48 51.6699C1374.52 51.6699 1383.56 52.6742 1392.26 54.348C1393.6 54.6828 1394.94 55.0177 1396.28 55.3524L1237.26 215.377Z" fill="#000A44"/>
<path d="M1306.22 343.932C1301.87 342.258 1297.85 340.584 1293.84 338.91C1285.47 334.893 1277.43 330.541 1269.73 325.185L1506.09 86.4873C1511.11 93.8524 1515.79 101.552 1519.48 109.922C1521.48 114.274 1523.49 118.626 1525.17 122.978L1306.22 343.932Z" fill="#000A44"/>
</svg>
