<svg width="87" height="16" viewBox="0 0 87 16" fill="none" xmlns="http://www.w3.org/2000/svg">
<g clip-path="url(#clip0_3_65986)">
<g clip-path="url(#clip1_3_65986)">
<path d="M2.53114 2.78213L6.57798 0.455078L10.6248 2.78213L9.10639 3.60021L6.57798 2.15311L3.98385 3.60021L2.53114 2.78213ZM10.5626 5.67291L9.10639 4.85483L6.57798 6.30193L3.98385 4.85483L2.52768 5.67291V7.37094L5.05955 8.81804V11.7741L6.51572 12.6541L7.97189 11.7741V8.88335L10.5038 7.43625V5.67634H10.5626V5.67291ZM10.5626 10.327V8.62899L9.10639 9.50894V11.1417L10.5626 10.327ZM11.6383 10.8907L9.10985 12.3378V14.0359L13.1601 11.7088V7.05814L11.6417 7.99996L11.6383 10.8907ZM10.1821 4.22924L11.6383 5.10919V6.80722L13.0944 5.92727V4.22924L11.6383 3.34929L10.1821 4.22924ZM5.05955 12.9669V14.6649L6.51572 15.5448L7.97189 14.6649V12.9669L6.51572 13.8468L5.05955 12.9669ZM2.52768 10.327L3.98385 11.1451V9.44707L2.52768 8.56712V10.327ZM5.05955 4.22924L6.51572 5.10919L8.03415 4.22924L6.57798 3.34929L5.05955 4.22924ZM1.45544 5.10919L2.97387 4.22924L1.45544 3.34929L-0.000732422 4.22924V5.92727L1.45544 6.80722V5.10919ZM1.45544 7.99996L-0.000732422 7.12001V11.7707L4.04957 14.0977V12.3997L1.5177 10.9526V7.99652L1.45544 7.99996Z" fill="#0A0E26"/>
<path d="M24.7959 9.94837C24.7959 8.81749 24.1629 8.25034 23.2152 7.87223C23.8482 7.55944 24.3532 6.99228 24.3532 6.05046C24.3532 4.73054 23.2775 3.85059 21.5688 3.85059H17.6465V12.2754H21.6933C23.53 12.2101 24.7959 11.4573 24.7959 9.94837ZM22.4543 6.36326C22.4543 6.99228 21.9493 7.24321 21.1261 7.24321H19.4174V5.42143H21.2506C22.0773 5.42143 22.4543 5.73767 22.4543 6.36326ZM22.9627 9.69744C22.9627 10.3265 22.4577 10.6393 21.6345 10.6393H19.4209V8.81749H21.5723C22.52 8.75218 22.9627 9.13029 22.9627 9.69744Z" fill="#0A0E26"/>
<path d="M33.9749 12.2101V3.85059H32.1383V9.00654L28.1537 3.85059H26.4485V12.2754H28.2817V6.93041L32.3942 12.2754H33.9749V12.2101Z" fill="#0A0E26"/>
<path d="M43.273 9.94837C43.273 8.81749 42.64 8.25034 41.6923 7.87223C42.3252 7.55944 42.8302 6.99228 42.8302 6.05046C42.8302 4.73054 41.7545 3.85059 40.0459 3.85059H36.1235V12.2754H40.1704C42.007 12.2101 43.273 11.4573 43.273 9.94837ZM40.997 6.36326C40.997 6.99228 40.492 7.24321 39.6688 7.24321H37.9602V5.42143H39.7934C40.5543 5.42143 40.997 5.73767 40.997 6.36326ZM41.4398 9.69744C41.4398 10.3265 40.9348 10.6393 40.1116 10.6393H37.8979V8.81749H40.0493C40.997 8.75218 41.4398 9.13029 41.4398 9.69744Z" fill="#0A0E26"/>
<path d="M54.462 10.7672L53.5143 9.82539C52.8191 10.5163 52.1239 10.8944 51.1104 10.8944C49.464 10.8944 48.326 9.57446 48.326 7.87643C48.326 6.24028 49.5297 4.92379 51.1104 4.92379C52.0581 4.92379 52.8191 5.36376 53.452 5.99279L54.3998 4.86192C53.5766 4.10915 52.6288 3.54199 51.1104 3.54199C48.5785 3.54199 46.7454 5.49094 46.7454 7.87987C46.7454 10.3307 48.5785 12.2178 51.0482 12.2178C52.6288 12.2109 53.5766 11.6472 54.462 10.7672Z" fill="#0A0E26"/>
<path d="M61.5033 8.90503V12.4248H62.9594V4H61.5033V7.5198H57.4564V4H56.0002V12.4248H57.4564V8.90503H61.5033Z" fill="#0A0E26"/>
<path d="M69.8335 3.66211H68.443L64.7109 12.1488H66.2294L67.1148 10.138H71.0994L71.9849 12.1488H73.5656L69.8335 3.66211ZM70.5944 8.75276H67.6855L69.1417 5.42201L70.5944 8.75276Z" fill="#0A0E26"/>
<path d="M75.2188 3.66211V12.0869H76.6715V3.66211H75.2188Z" fill="#0A0E26"/>
<path d="M84.9597 9.50897L80.4044 3.72398H79.0762V12.1488H80.5323V6.11291L85.2121 12.0869H86.4781V3.66211H85.0219V9.50897H84.9597Z" fill="#0A0E26"/>
</g>
</g>
<defs>
<clipPath id="clip0_3_65986">
<rect width="86.4709" height="15.0898" fill="white" transform="translate(0 0.455078)"/>
</clipPath>
<clipPath id="clip1_3_65986">
<rect width="86.4709" height="15.0898" fill="white" transform="translate(0 0.455078)"/>
</clipPath>
</defs>
</svg>
