<svg width="87" height="16" viewBox="0 0 87 16" fill="none" xmlns="http://www.w3.org/2000/svg">
<g clip-path="url(#clip0_3_18960)">
<path d="M2.53114 2.78189L6.57798 0.454834L10.6248 2.78189L9.10639 3.59997L6.57798 2.15286L3.98385 3.59997L2.53114 2.78189ZM10.5626 5.67266L9.10639 4.85458L6.57798 6.30169L3.98385 4.85458L2.52768 5.67266V7.37069L5.05955 8.8178V11.7739L6.51572 12.6538L7.97189 11.7739V8.88311L10.5038 7.436V5.6761H10.5626V5.67266ZM10.5626 10.3268V8.62875L9.10639 9.5087V11.1414L10.5626 10.3268ZM11.6383 10.8905L9.10985 12.3376V14.0356L13.1601 11.7086V7.0579L11.6417 7.99972L11.6383 10.8905ZM10.1821 4.229L11.6383 5.10894V6.80697L13.0944 5.92702V4.229L11.6383 3.34904L10.1821 4.229ZM5.05955 12.9666V14.6647L6.51572 15.5446L7.97189 14.6647V12.9666L6.51572 13.8466L5.05955 12.9666ZM2.52768 10.3268L3.98385 11.1449V9.44682L2.52768 8.56687V10.3268ZM5.05955 4.229L6.51572 5.10894L8.03415 4.229L6.57798 3.34904L5.05955 4.229ZM1.45544 5.10894L2.97387 4.229L1.45544 3.34904L-0.000732422 4.229V5.92702L1.45544 6.80697V5.10894ZM1.45544 7.99972L-0.000732422 7.11977V11.7704L4.04957 14.0975V12.3995L1.5177 10.9524V7.99628L1.45544 7.99972Z" fill="#C4FF61"/>
<path d="M24.7959 9.94861C24.7959 8.81774 24.1629 8.25058 23.2152 7.87248C23.8482 7.55968 24.3532 6.99253 24.3532 6.05071C24.3532 4.73078 23.2775 3.85083 21.5688 3.85083H17.6465V12.2757H21.6933C23.53 12.2104 24.7959 11.4576 24.7959 9.94861ZM22.4543 6.3635C22.4543 6.99253 21.9493 7.24345 21.1261 7.24345H19.4174V5.42168H21.2506C22.0773 5.42168 22.4543 5.73791 22.4543 6.3635ZM22.9627 9.69769C22.9627 10.3267 22.4577 10.6395 21.6345 10.6395H19.4209V8.81774H21.5723C22.52 8.75243 22.9627 9.13053 22.9627 9.69769Z" fill="#C4FF61"/>
<path d="M33.9749 12.2101V3.85059H32.1383V9.00654L28.1537 3.85059H26.4485V12.2754H28.2817V6.93041L32.3942 12.2754H33.9749V12.2101Z" fill="#C4FF61"/>
<path d="M43.273 9.94837C43.273 8.81749 42.64 8.25034 41.6923 7.87223C42.3252 7.55944 42.8302 6.99228 42.8302 6.05046C42.8302 4.73054 41.7545 3.85059 40.0459 3.85059H36.1235V12.2754H40.1704C42.007 12.2101 43.273 11.4573 43.273 9.94837ZM40.997 6.36326C40.997 6.99228 40.492 7.24321 39.6688 7.24321H37.9602V5.42143H39.7934C40.5543 5.42143 40.997 5.73767 40.997 6.36326ZM41.4398 9.69744C41.4398 10.3265 40.9348 10.6393 40.1116 10.6393H37.8979V8.81749H40.0493C40.997 8.75218 41.4398 9.13029 41.4398 9.69744Z" fill="#C4FF61"/>
<path d="M54.462 10.7667L53.5143 9.8249C52.8191 10.5158 52.1239 10.8939 51.1104 10.8939C49.464 10.8939 48.326 9.57397 48.326 7.87595C48.326 6.23979 49.5297 4.9233 51.1104 4.9233C52.0581 4.9233 52.8191 5.36328 53.452 5.9923L54.3998 4.86143C53.5766 4.10866 52.6288 3.5415 51.1104 3.5415C48.5785 3.5415 46.7454 5.49046 46.7454 7.87938C46.7454 10.3302 48.5785 12.2173 51.0482 12.2173C52.6288 12.2104 53.5766 11.6467 54.462 10.7667Z" fill="#C4FF61"/>
<path d="M61.5033 8.90479V12.4246H62.9594V3.99976H61.5033V7.51956H57.4564V3.99976H56.0002V12.4246H57.4564V8.90479H61.5033Z" fill="#C4FF61"/>
<path d="M69.8335 3.66162H68.443L64.7109 12.1483H66.2294L67.1148 10.1375H71.0994L71.9849 12.1483H73.5656L69.8335 3.66162ZM70.5944 8.75227H67.6855L69.1417 5.42152L70.5944 8.75227Z" fill="#C4FF61"/>
<path d="M75.2188 3.66162V12.0865H76.6715V3.66162H75.2188Z" fill="#C4FF61"/>
<path d="M84.9597 9.50848L80.4044 3.72349H79.0762V12.1483H80.5323V6.11242L85.2121 12.0865H86.4781V3.66162H85.0219V9.50848H84.9597Z" fill="#C4FF61"/>
</g>
<defs>
<clipPath id="clip0_3_18960">
<rect width="86.4709" height="15.0898" fill="white" transform="translate(0 0.455078)"/>
</clipPath>
</defs>
</svg>
