<svg width="88" height="18" viewBox="0 0 88 18" fill="none" xmlns="http://www.w3.org/2000/svg">
<path d="M19.9941 4.68945H21.6879V11.9585H25.8517V13.5818H19.9941V4.68945Z" fill="#0A0E26"/>
<path d="M33.2617 4.68945H34.9555V13.5818H33.2617V4.68945Z" fill="#0A0E26"/>
<path d="M43.0605 4.68945H45.8835C46.4669 4.68945 47.0221 4.81178 47.549 5.05643C48.0761 5.29167 48.5419 5.61161 48.9464 6.01622C49.3509 6.42084 49.671 6.89134 49.9063 7.42769C50.1414 7.96406 50.259 8.53334 50.259 9.13557C50.259 9.73786 50.1414 10.3072 49.9063 10.8435C49.671 11.3798 49.3509 11.8503 48.9464 12.2548C48.5419 12.6596 48.0761 12.9842 47.549 13.2289C47.0221 13.4641 46.4669 13.5818 45.8835 13.5818H43.0605V4.68945ZM45.8835 11.9585C46.2317 11.9585 46.5657 11.8833 46.8856 11.7327C47.2149 11.582 47.502 11.3798 47.7467 11.1257C48.0006 10.8717 48.1984 10.5752 48.3394 10.2365C48.49 9.88829 48.5652 9.52137 48.5652 9.13557C48.5652 8.74977 48.49 8.38749 48.3394 8.04874C48.1984 7.70058 48.0006 7.39947 47.7467 7.1454C47.502 6.89134 47.2149 6.68903 46.8856 6.53847C46.5657 6.38791 46.2317 6.31264 45.8835 6.31264H44.7543V11.9585H45.8835Z" fill="#0A0E26"/>
<path d="M61.6956 13.6525C61.1122 13.6525 60.557 13.5396 60.0301 13.3138C59.5125 13.0785 59.0561 12.7586 58.661 12.3541C58.2751 11.9399 57.9646 11.46 57.7294 10.9142C57.5035 10.3685 57.3906 9.77563 57.3906 9.13583C57.3906 8.50538 57.5035 7.91727 57.7294 7.3715C57.9646 6.81632 58.2751 6.33643 58.661 5.93181C59.0561 5.51777 59.5125 5.19785 60.0301 4.97201C60.557 4.73677 61.1122 4.61914 61.6956 4.61914C62.2791 4.61914 62.8295 4.73677 63.347 4.97201C63.8741 5.19785 64.3304 5.51777 64.7161 5.93181C65.1114 6.33643 65.4219 6.81632 65.6477 7.3715C65.883 7.91727 66.0006 8.50538 66.0006 9.13583C66.0006 9.77563 65.883 10.3685 65.6477 10.9142C65.4219 11.46 65.1114 11.9399 64.7161 12.3541C64.3304 12.7586 63.8741 13.0785 63.347 13.3138C62.8295 13.5396 62.2791 13.6525 61.6956 13.6525ZM61.6956 12.0293C62.0438 12.0293 62.3779 11.9588 62.6978 11.8176C63.0177 11.6766 63.2953 11.4788 63.5306 11.2247C63.7659 10.9614 63.954 10.6556 64.0952 10.3074C64.2362 9.94982 64.3069 9.55928 64.3069 9.13583C64.3069 8.7124 64.2362 8.3266 64.0952 7.97844C63.954 7.62086 63.7659 7.31504 63.5306 7.06098C63.2953 6.7975 63.0177 6.59519 62.6978 6.45406C62.3779 6.3129 62.0438 6.24232 61.6956 6.24232C61.338 6.24232 60.9993 6.3129 60.6794 6.45406C60.3689 6.59519 60.0959 6.7975 59.8607 7.06098C59.6254 7.31504 59.4373 7.62086 59.2961 7.97844C59.1549 8.3266 59.0844 8.7124 59.0844 9.13583C59.0844 9.55928 59.1549 9.94982 59.2961 10.3074C59.4373 10.6556 59.6254 10.9614 59.8607 11.2247C60.0959 11.4788 60.3689 11.6766 60.6794 11.8176C60.9993 11.9588 61.338 12.0293 61.6956 12.0293Z" fill="#0A0E26"/>
<path fill-rule="evenodd" clip-rule="evenodd" d="M6.64769 1.08398L10.5357 7.16992L6.64749 9.43584L2.75977 7.16984L6.64769 1.08398ZM3.94996 6.88205L6.64769 2.65921L9.34545 6.88206L6.64751 8.45437L3.94996 6.88205Z" fill="#0A0E26"/>
<path d="M6.64254 10.7733L2.13239 8.14459L2.00922 8.33737C0.620121 10.5118 0.930341 13.3594 2.75511 15.184C4.90241 17.3308 8.38385 17.3308 10.5312 15.184C12.356 13.3594 12.6661 10.5118 11.2771 8.33737L11.1537 8.14453L6.64274 10.7735L6.64254 10.7733Z" fill="#0A0E26"/>
</svg>
