<svg width="88" height="17" viewBox="0 0 88 17" fill="none" xmlns="http://www.w3.org/2000/svg">
<g clip-path="url(#clip0_3_24075)">
<path d="M19.9941 3.70605H21.6879V10.9751H25.8517V12.5984H19.9941V3.70605Z" fill="#C4FF61"/>
<path d="M33.2617 3.70605H34.9555V12.5984H33.2617V3.70605Z" fill="#C4FF61"/>
<path d="M43.0605 3.70605H45.8835C46.4669 3.70605 47.0221 3.82838 47.549 4.07303C48.0761 4.30827 48.5419 4.62821 48.9464 5.03282C49.3509 5.43744 49.671 5.90794 49.9063 6.44429C50.1414 6.98066 50.259 7.54994 50.259 8.15217C50.259 8.75446 50.1414 9.32376 49.9063 9.86007C49.671 10.3964 49.3509 10.8669 48.9464 11.2714C48.5419 11.6762 48.0761 12.0008 47.549 12.2455C47.0221 12.4807 46.4669 12.5984 45.8835 12.5984H43.0605V3.70605ZM45.8835 10.9751C46.2317 10.9751 46.5657 10.8999 46.8856 10.7493C47.2149 10.5986 47.502 10.3964 47.7467 10.1423C48.0006 9.88835 48.1984 9.59182 48.3394 9.25307C48.49 8.90489 48.5652 8.53798 48.5652 8.15217C48.5652 7.76637 48.49 7.40409 48.3394 7.06534C48.1984 6.71718 48.0006 6.41607 47.7467 6.162C47.502 5.90794 47.2149 5.70564 46.8856 5.55507C46.5657 5.40451 46.2317 5.32924 45.8835 5.32924H44.7543V10.9751H45.8835Z" fill="#C4FF61"/>
<path d="M61.6956 12.6691C61.1122 12.6691 60.557 12.5562 60.0301 12.3304C59.5125 12.0951 59.0561 11.7752 58.661 11.3707C58.2751 10.9565 57.9646 10.4766 57.7294 9.93084C57.5035 9.3851 57.3906 8.79224 57.3906 8.15244C57.3906 7.52198 57.5035 6.93387 57.7294 6.3881C57.9646 5.83292 58.2751 5.35303 58.661 4.94841C59.0561 4.53437 59.5125 4.21445 60.0301 3.98861C60.557 3.75337 61.1122 3.63574 61.6956 3.63574C62.2791 3.63574 62.8295 3.75337 63.347 3.98861C63.8741 4.21445 64.3304 4.53437 64.7161 4.94841C65.1114 5.35303 65.4219 5.83292 65.6477 6.3881C65.883 6.93387 66.0006 7.52198 66.0006 8.15244C66.0006 8.79224 65.883 9.3851 65.6477 9.93084C65.4219 10.4766 65.1114 10.9565 64.7161 11.3707C64.3304 11.7752 63.8741 12.0951 63.347 12.3304C62.8295 12.5562 62.2791 12.6691 61.6956 12.6691ZM61.6956 11.0459C62.0438 11.0459 62.3779 10.9754 62.6978 10.8342C63.0177 10.6932 63.2953 10.4954 63.5306 10.2413C63.7659 9.97797 63.954 9.67221 64.0952 9.32403C64.2362 8.96642 64.3069 8.57589 64.3069 8.15244C64.3069 7.72901 64.2362 7.3432 64.0952 6.99504C63.954 6.63746 63.7659 6.33164 63.5306 6.07759C63.2953 5.81411 63.0177 5.6118 62.6978 5.47066C62.3779 5.3295 62.0438 5.25892 61.6956 5.25892C61.338 5.25892 60.9993 5.3295 60.6794 5.47066C60.3689 5.6118 60.0959 5.81411 59.8607 6.07759C59.6254 6.33164 59.4373 6.63746 59.2961 6.99504C59.1549 7.3432 59.0844 7.72901 59.0844 8.15244C59.0844 8.57589 59.1549 8.96642 59.2961 9.32403C59.4373 9.67221 59.6254 9.97797 59.8607 10.2413C60.0959 10.4954 60.3689 10.6932 60.6794 10.8342C60.9993 10.9754 61.338 11.0459 61.6956 11.0459Z" fill="#C4FF61"/>
<path fill-rule="evenodd" clip-rule="evenodd" d="M6.64769 0.10083L10.5357 6.18676L6.64749 8.45269L2.75977 6.18668L6.64769 0.10083ZM3.94996 5.89889L6.64769 1.67606L9.34545 5.89891L6.64751 7.47121L3.94996 5.89889Z" fill="#C4FF61"/>
<path d="M6.64254 9.79042L2.13239 7.16168L2.00922 7.35446C0.620121 9.52884 0.930341 12.3765 2.75511 14.2011C4.90241 16.3479 8.38385 16.3479 10.5312 14.2011C12.356 12.3765 12.6661 9.52884 11.2771 7.35446L11.1537 7.16162L6.64274 9.79061L6.64254 9.79042Z" fill="#C4FF61"/>
</g>
<defs>
<clipPath id="clip0_3_24075">
<rect width="88" height="17" fill="white" transform="translate(0 -0.0012207)"/>
</clipPath>
</defs>
</svg>
