<svg width="52" height="13" viewBox="0 0 52 13" fill="none" xmlns="http://www.w3.org/2000/svg">
<path d="M7.8454 6.1826C8.24714 5.58 8.448 4.89928 8.448 4.16277C8.448 3.49321 8.28061 2.87945 7.957 2.31033C7.62222 1.74121 7.17585 1.29484 6.60673 0.960061C6.03762 0.636442 5.4127 0.469051 4.75431 0.469051H0.000488281V2.03135H4.75431C5.34575 2.03135 5.84791 2.24337 6.27196 2.65627C6.68485 3.06916 6.89687 3.57133 6.89687 4.17393C6.89687 4.77653 6.68485 5.26754 6.27196 5.69159C5.85907 6.10448 5.35691 6.31651 4.75431 6.31651H0.000488281V11.7734H1.56278V7.87881H4.75431C4.76547 7.87881 4.78779 7.87881 4.8101 7.87881C4.83242 7.87881 4.85474 7.87881 4.8659 7.87881L6.89687 11.7845H8.45916L6.2608 7.55518C6.9192 7.24273 7.44367 6.79636 7.8454 6.1826Z" fill="#C4FF61"/>
<path d="M10.1211 5.34565V6.90795H18.0776V5.34565H10.1211ZM10.1211 10.2557L9.30645 11.7845H18.0888V10.2557H10.1211ZM9.30645 0.469051L10.1211 2.03135H18.0776V0.469051H9.30645Z" fill="#C4FF61"/>
<path d="M27.6202 0.47064V8.62807L19.2508 0.00195312V11.7973H20.8131V3.75147L29.1825 12.3106V0.47064H27.6202Z" fill="#C4FF61"/>
<path d="M33.5233 7.61098L36.3019 5.97057C37.0161 5.54652 37.5852 4.9774 37.9981 4.25204C38.411 3.52669 38.6119 2.74554 38.6119 1.9086V0.469051H30.4879V2.03135H37.0607V2.05367C37.0607 2.58931 36.9268 3.09148 36.659 3.56017C36.3912 4.02886 36.0229 4.39711 35.5654 4.66494L32.8202 6.28303C32.0949 6.70708 31.5369 7.2762 31.1129 8.00156C30.7 8.72691 30.4879 9.50806 30.4879 10.345V11.7734H38.6119V10.2111H32.0391C32.0391 9.67545 32.173 9.17328 32.4408 8.71575C32.6975 8.24706 33.0657 7.8788 33.5233 7.61098Z" fill="#C4FF61"/>
<path d="M51.4064 6.69201C51.4064 6.70317 51.4064 6.71433 51.4064 6.72549C51.1497 9.51531 48.9402 11.6802 46.2397 11.9703C46.2173 11.9703 46.2062 11.9703 46.1839 11.9703L51.4064 6.69201Z" fill="#C4FF61"/>
<path d="M48.1591 0.933689C48.014 0.866733 47.8689 0.799779 47.7127 0.732823C47.4114 0.621231 47.1101 0.520798 46.7865 0.465002C46.4071 0.386887 46.0054 0.342249 45.6036 0.342249C45.4139 0.342249 45.213 0.353407 45.0233 0.375725C43.6842 0.509637 42.479 1.08992 41.5528 1.98266C41.4859 2.03846 41.4301 2.10541 41.3743 2.16121C40.4927 3.08743 39.9236 4.30379 39.8008 5.6429C39.7897 5.81029 39.7785 5.98884 39.7785 6.16738C39.7785 6.6026 39.8231 7.02665 39.9124 7.43954C39.9794 7.752 40.0686 8.0533 40.1914 8.33229C40.2584 8.48852 40.3253 8.64474 40.4034 8.80097C40.5373 9.0688 40.6936 9.3143 40.861 9.5598L41.8206 8.58895L47.9917 2.36208L48.9514 1.39122C48.6947 1.21267 48.4381 1.0676 48.1591 0.933689ZM41.2515 7.27215C41.2404 7.22752 41.2292 7.19404 41.218 7.1494C41.1511 6.83694 41.1064 6.50216 41.1064 6.16738C41.1064 5.01798 41.5417 3.92437 42.3228 3.08743L42.479 2.92004C43.316 2.11657 44.4207 1.6702 45.5925 1.6702C45.9049 1.6702 46.2062 1.70368 46.5075 1.75947C46.5521 1.77063 46.5968 1.78179 46.6414 1.79295L41.2515 7.27215Z" fill="#C4FF61"/>
<path d="M43.5949 11.636C43.4499 11.5802 43.3048 11.5244 43.1709 11.4574C42.8807 11.3235 42.6129 11.1673 42.3451 10.9887L50.402 2.85363C50.5806 3.1103 50.7257 3.36696 50.8596 3.64594C50.9265 3.79101 50.9935 3.93608 51.0493 4.09231L43.5949 11.636Z" fill="#C4FF61"/>
</svg>
