<svg width="52" height="13" viewBox="0 0 52 13" fill="none" xmlns="http://www.w3.org/2000/svg">
<path d="M7.8454 6.528C8.24714 5.9254 8.448 5.24468 8.448 4.50817C8.448 3.83861 8.28061 3.22485 7.957 2.65573C7.62222 2.08661 7.17585 1.64024 6.60673 1.30546C6.03761 0.981845 5.4127 0.814453 4.75431 0.814453H0.000488281V2.37675H4.75431C5.34575 2.37675 5.84791 2.58878 6.27196 3.00167C6.68485 3.41456 6.89687 3.91673 6.89687 4.51933C6.89687 5.12193 6.68485 5.61294 6.27196 6.03699C5.85907 6.44988 5.35691 6.66191 4.75431 6.66191H0.000488281V12.1188H1.56278V8.22421H4.75431C4.76547 8.22421 4.78779 8.22421 4.8101 8.22421C4.83242 8.22421 4.85474 8.22421 4.8659 8.22421L6.89687 12.13H8.45916L6.2608 7.90059C6.9192 7.58813 7.44367 7.14176 7.8454 6.528Z" fill="#0A0E26"/>
<path d="M10.121 5.69105V7.25335H18.0775V5.69105H10.121ZM10.121 10.6011L9.3064 12.13H18.0887V10.6011H10.121ZM9.3064 0.814453L10.121 2.37675H18.0775V0.814453H9.3064Z" fill="#0A0E26"/>
<path d="M27.6201 0.816343V8.97377L19.2507 0.347656V12.143H20.813V4.09717L29.1824 12.6563V0.816343H27.6201Z" fill="#0A0E26"/>
<path d="M33.5233 7.95638L36.302 6.31597C37.0162 5.89192 37.5853 5.3228 37.9982 4.59745C38.4111 3.87209 38.6119 3.09095 38.6119 2.254V0.814453H30.488V2.37675H37.0608V2.39907C37.0608 2.93472 36.9269 3.43688 36.6591 3.90557C36.3913 4.37426 36.023 4.74252 35.5655 5.01034L32.8203 6.62843C32.095 7.05248 31.537 7.62161 31.113 8.34696C30.7001 9.07231 30.488 9.85346 30.488 10.6904V12.1188H38.6119V10.5565H32.0392C32.0392 10.0209 32.1731 9.51868 32.4409 9.06115C32.6976 8.59246 33.0658 8.22421 33.5233 7.95638Z" fill="#0A0E26"/>
<path d="M51.4064 7.03711C51.4064 7.04827 51.4064 7.05943 51.4064 7.07059C51.1497 9.8604 48.9402 12.0253 46.2396 12.3154C46.2173 12.3154 46.2062 12.3154 46.1838 12.3154L51.4064 7.03711Z" fill="#0A0E26"/>
<path d="M48.1591 1.27894C48.0141 1.21198 47.869 1.14503 47.7128 1.07807C47.4115 0.966482 47.1102 0.866049 46.7865 0.810253C46.4071 0.732138 46.0054 0.6875 45.6037 0.6875C45.414 0.6875 45.2131 0.698658 45.0234 0.720976C43.6843 0.854888 42.4791 1.43517 41.5529 2.32791C41.4859 2.38371 41.4301 2.45066 41.3743 2.50646C40.4927 3.43268 39.9236 4.64904 39.8009 5.98815C39.7897 6.15554 39.7786 6.33409 39.7786 6.51264C39.7786 6.94785 39.8232 7.3719 39.9125 7.7848C39.9794 8.09725 40.0687 8.39855 40.1914 8.67754C40.2584 8.83377 40.3254 8.98999 40.4035 9.14622C40.5374 9.41405 40.6936 9.65955 40.861 9.90506L41.8207 8.9342L47.9917 2.70733L48.9514 1.73647C48.6948 1.55792 48.4381 1.41285 48.1591 1.27894ZM41.2516 7.61741C41.2404 7.57277 41.2293 7.53929 41.2181 7.49465C41.1511 7.18219 41.1065 6.84741 41.1065 6.51264C41.1065 5.36323 41.5417 4.26963 42.3229 3.43268L42.4791 3.26529C43.316 2.46182 44.4208 2.01545 45.5925 2.01545C45.905 2.01545 46.2063 2.04893 46.5076 2.10473C46.5522 2.11588 46.5968 2.12705 46.6415 2.1382L41.2516 7.61741Z" fill="#0A0E26"/>
<path d="M43.5948 11.9816C43.4497 11.9258 43.3047 11.87 43.1707 11.803C42.8806 11.6691 42.6128 11.5129 42.345 11.3343L50.4019 3.19922C50.5805 3.45588 50.7255 3.71255 50.8594 3.99153C50.9264 4.1366 50.9934 4.28167 51.0492 4.4379L43.5948 11.9816Z" fill="#0A0E26"/>
</svg>
