<?xml version="1.0" encoding="UTF-8" standalone="no"?>
<!DOCTYPE svg PUBLIC "-//W3C//DTD SVG 1.1//EN" "http://www.w3.org/Graphics/SVG/1.1/DTD/svg11.dtd">
<svg t="1603718608188" class="icon" viewBox="0 0 1024 1024" version="1.1" xmlns="http://www.w3.org/2000/svg" p-id="17279" xmlns:xlink="http://www.w3.org/1999/xlink" width="128" height="128"><defs><style type="text/css"/></defs><path d="M512 1024C229.239467 1024 0 794.760533 0 512S229.239467 0 512 0 1024 229.239467 1024 512 794.760533 1024 512 1024z m-26.874311-731.591111c5.7344 0 10.148978-1.137778 13.220978-3.367822a12.105956 12.105956 0 0 0 5.302044-8.419556 16.975644 16.975644 0 0 0-2.639644-10.740622 33.792 33.792 0 0 0-9.944178-10.422045 334.483911 334.483911 0 0 0-15.542045-9.056711c-6.826667-3.822933-14.222222-8.078222-22.141155-12.765866a1228.526933 1228.526933 0 0 0-24.484978-14.108445 730.680889 730.680889 0 0 1-22.482489-13.1072c-5.7344-3.595378-10.581333-4.7104-14.563555-3.367822a17.726578 17.726578 0 0 0-9.580089 8.055467 50.130489 50.130489 0 0 0-5.620622 14.791111 122.584178 122.584178 0 0 0-2.639645 16.133689 89.543111 89.543111 0 0 0-1.319822 15.792355c0 5.597867 0.637156 10.626844 1.979733 15.109689 1.319822 4.482844 3.640889 8.192 6.940445 11.081956 3.299556 2.912711 8.032711 4.369067 14.222222 4.369066h89.2928z m51.586844-0.682667h88.632889c6.166756 0 10.922667-1.456356 14.222222-4.369066 3.299556-2.912711 5.620622-6.599111 6.940445-11.104712 1.319822-4.460089 1.979733-9.511822 1.979733-15.109688 0-5.597867-0.227556-10.8544-0.659911-15.792356a938.234311 938.234311 0 0 0-2.958222-15.792356 44.487111 44.487111 0 0 0-5.302045-14.449777 17.726578 17.726578 0 0 0-9.580088-8.055467c-3.982222-1.342578-8.829156-0.455111-14.563556 2.685156-6.599111 4.027733-14.108444 8.419556-22.482489 13.1072-8.374044 4.7104-16.657067 9.398044-24.803555 14.108444-8.169244 4.7104-15.655822 8.965689-22.482489 12.765867-6.826667 3.800178-11.810133 6.826667-14.882134 9.079466-4.869689 3.140267-8.3968 6.599111-10.604089 10.399289a16.975644 16.975644 0 0 0-2.639644 10.763378c0.455111 3.367822 2.207289 6.144 5.302044 8.3968 3.072 2.2528 7.714133 3.367822 13.880889 3.367822z m-60.848355 44.350578h-191.829334c-14.108444 0-23.256178 2.343822-27.4432 7.054222-4.187022 4.687644-6.280533 12.196978-6.280533 22.505245v59.118933c0 11.218489 2.321067 19.501511 6.940445 24.871822 4.642133 5.370311 13.789867 8.055467 27.465955 8.055467h191.146667V336.099556z m72.0896 0v121.605689h191.146666c13.676089 0 22.823822-2.571378 27.465956-7.736889 4.619378-5.142756 6.940444-13.084444 6.940444-23.847822v-57.799111c0-10.285511-2.525867-18.2272-7.600355-23.825067-5.074489-5.597867-14.654578-8.419556-28.763022-8.419556H547.953778z m-72.0896 157.240889h-203.070578V747.292444c0 22.846578 6.394311 40.5504 19.182933 53.088712 12.788622 12.538311 32.631467 18.818844 59.528534 18.818844h124.359111V493.294933z m72.0896 0V819.2h124.359111c26.897067 0 46.512356-6.599111 58.868622-19.820089 12.333511-13.198222 18.750578-31.243378 19.182933-54.089955V493.294933H547.953778z" p-id="17280" fill="#FF6C3B"/></svg>